<svg width="100" height="100" viewBox="0 0 100 100" fill="none" xmlns="http://www.w3.org/2000/svg">
<path d="M93.911 36.5925C93.9891 35.9154 93.7939 35.2769 93.3449 34.7739C92.8959 34.2709 92.2712 34 91.5684 34H7.44885C6.74606 34 6.12136 34.2709 5.67236 34.7739C5.24288 35.2576 5.04766 35.896 5.10623 36.5925C5.06718 38.0435 4.42296 59.3253 6.84367 63.7557C7.4098 64.8005 8.34685 66 10.4552 66H88.562C90.6704 66 91.6074 64.8005 92.1736 63.7557C94.5943 59.3253 93.95 38.0435 93.911 36.5925ZM91.0218 63.1366C90.4947 64.104 89.909 64.7038 88.562 64.7038H10.4552C9.12772 64.7038 8.52255 64.104 7.99546 63.1366C6.17993 59.7896 6.17993 44.2926 6.43371 36.5732C6.43371 36.5345 6.43371 36.4958 6.43371 36.4764C6.39467 36.1475 6.47276 35.8573 6.66797 35.6445C6.86319 35.4317 7.1365 35.3156 7.44885 35.3156H91.5489C91.8612 35.3156 92.154 35.4317 92.3297 35.6445C92.5249 35.8573 92.603 36.1669 92.564 36.4764C92.564 36.5151 92.564 36.5538 92.564 36.5732C92.8373 44.2926 92.8568 59.7896 91.0218 63.1366Z" fill="#000000"/>
<path d="M87.6448 57.5254H11.373C10.3579 57.5254 9.92839 58.0091 9.77222 58.2993C9.47939 58.8023 9.51843 59.4794 9.90887 60.1179L10.3579 60.795C10.7678 61.4142 11.2168 61.8398 11.7439 62.13C11.9587 62.2461 12.232 62.1687 12.3296 61.9559C12.4467 61.7431 12.3686 61.4722 12.1539 61.3755C11.7439 61.1626 11.412 60.8337 11.0802 60.3307L10.6312 59.6729C10.4164 59.3247 10.3774 58.9764 10.514 58.7443C10.6507 58.5314 10.9435 58.396 11.3535 58.396H87.6252C88.0352 58.396 88.3475 58.5121 88.4647 58.7443C88.6013 58.9764 88.5623 59.3247 88.3671 59.6342L87.8985 60.3114C87.5471 60.8144 87.2153 61.1433 86.8248 61.3561C86.6101 61.4722 86.532 61.7431 86.6491 61.9365C86.7272 62.0913 86.8834 62.1687 87.0396 62.1687C87.1177 62.1687 87.1762 62.1493 87.2543 62.1106C87.7814 61.8204 88.2304 61.4142 88.6404 60.7757L89.1089 60.0792C89.4798 59.4601 89.5189 58.783 89.226 58.2799C89.0894 58.0091 88.6599 57.5254 87.6448 57.5254Z" fill="#000000"/>
<path d="M87.0397 63.4068C86.7469 63.1166 85.3609 61.7623 85.029 60.1178C84.9899 59.905 84.8142 59.7695 84.5995 59.7695H14.2038C13.9891 59.7695 13.8134 59.9243 13.7743 60.1178C13.4034 61.9364 11.7245 63.4455 11.705 63.4648C11.5684 63.5809 11.5293 63.7744 11.5879 63.9485C11.6464 64.1226 11.8221 64.2194 11.9978 64.2194H86.8055H86.825C87.0593 64.2194 87.2545 64.0259 87.2545 63.7937C87.274 63.6196 87.1764 63.4842 87.0397 63.4068ZM13.0325 63.3487C13.5596 62.7296 14.2428 61.7623 14.5552 60.6401H84.2676C84.58 61.7623 85.2632 62.7296 85.7903 63.3487H13.0325Z" fill="#000000"/>
</svg>
