<?xml version="1.0" standalone="no"?>
<!DOCTYPE svg PUBLIC "-//W3C//DTD SVG 20010904//EN"
 "http://www.w3.org/TR/2001/REC-SVG-20010904/DTD/svg10.dtd">
<svg version="1.0" xmlns="http://www.w3.org/2000/svg"
 width="2083.000000pt" height="2083.000000pt" viewBox="0 0 2083.000000 2083.000000"
 preserveAspectRatio="xMidYMid meet">

<g transform="translate(0.000000,2083.000000) scale(0.100000,-0.100000)"
fill="#000000" stroke="none">
<path d="M6826 19305 c-229 -46 -427 -238 -481 -467 -13 -55 -15 -1062 -15
-8178 0 -7149 2 -8123 15 -8178 50 -211 209 -380 428 -456 l62 -21 3548 -3
c3955 -2 3618 -9 3777 69 155 76 278 227 327 399 17 63 18 338 18 8185 0 6790
-2 8129 -14 8175 -53 217 -218 392 -441 467 -53 17 -182 18 -3605 20 -2968 1
-3561 -1 -3619 -12z m7134 -311 c99 -29 166 -89 212 -190 l23 -49 3 -3072 2
-3073 -3780 0 -3780 0 0 3063 c0 3357 -5 3111 60 3201 40 55 93 93 163 117 50
18 210 18 3548 19 3180 0 3500 -1 3549 -16z m238 -11511 l-3 -4918 -26 -56
c-36 -76 -89 -133 -157 -166 l-57 -28 -3535 0 -3535 0 -56 26 c-69 33 -127 89
-160 155 l-24 49 -3 4928 -2 4927 3780 0 3780 0 -2 -4917z"/>
<path d="M13080 18360 c-11 -11 -22 -30 -25 -42 -3 -13 -4 -1140 -3 -2504 3
-2425 3 -2482 22 -2503 19 -20 27 -21 298 -21 163 0 287 4 298 10 10 5 23 24
29 41 16 45 16 4943 0 4988 -6 17 -19 36 -29 41 -11 6 -134 10 -294 10 -261 0
-277 -1 -296 -20z m460 -2525 l0 -2385 -160 0 -160 0 0 2385 0 2385 160 0 160
0 0 -2385z"/>
<path d="M13114 11603 c-12 -2 -30 -13 -40 -25 -18 -19 -19 -145 -19 -4250 l0
-4230 24 -19 c22 -18 42 -19 298 -19 160 0 282 4 293 10 10 5 23 24 29 41 8
23 11 1188 11 4221 0 4598 5 4244 -60 4267 -31 10 -485 14 -536 4z m426 -4273
l0 -4110 -160 0 -160 0 0 4110 0 4110 160 0 160 0 0 -4110z"/>
<path d="M6895 1806 c-56 -25 -95 -85 -95 -145 0 -43 41 -112 80 -132 34 -18
145 -19 3533 -19 3208 0 3502 1 3533 16 49 23 77 68 81 128 5 67 -20 113 -77
143 l-43 23 -3491 0 c-2887 -1 -3496 -3 -3521 -14z"/>
</g>
</svg>
