<?xml version="1.0" standalone="no"?>
<!DOCTYPE svg PUBLIC "-//W3C//DTD SVG 20010904//EN"
 "http://www.w3.org/TR/2001/REC-SVG-20010904/DTD/svg10.dtd">
<svg version="1.0" xmlns="http://www.w3.org/2000/svg"
 width="344.000000pt" height="344.000000pt" viewBox="0 0 344.000000 344.000000"
 preserveAspectRatio="xMidYMid meet">

<g transform="translate(0.000000,344.000000) scale(0.100000,-0.100000)"
fill="#000000" stroke="none">
<path d="M630 1720 l0 -1090 1090 0 1090 0 0 1090 0 1090 -1090 0 -1090 0 0
-1090z m2120 150 l0 -870 -60 0 -60 0 0 570 0 570 -910 0 -910 0 0 -570 0
-570 -60 0 -60 0 0 870 0 870 1030 0 1030 0 0 -870z m-170 -310 l0 -530 -865
0 -865 0 0 530 0 530 865 0 865 0 0 -530z m168 -722 l3 -138 -1031 0 -1030 0
0 133 c0 74 3 137 7 140 3 4 466 6 1027 5 l1021 -3 3 -137z"/>
<path d="M1300 2530 l0 -90 420 0 420 0 0 90 0 90 -420 0 -420 0 0 -90z m818
3 l-3 -68 -395 0 -395 0 -3 68 -3 67 401 0 401 0 -3 -67z"/>
<path d="M830 2290 l0 -30 890 0 890 0 0 30 0 30 -890 0 -890 0 0 -30z"/>
</g>
</svg>
