<?xml version="1.0" encoding="UTF-8"?>
<svg width="100px" height="100px" viewBox="0 0 100 100" version="1.1" xmlns="http://www.w3.org/2000/svg" xmlns:xlink="http://www.w3.org/1999/xlink">
    <title>Vacuum</title>
    <g id="Desktop" stroke="none" stroke-width="1" fill="none" fill-rule="evenodd">
        <g id="01_[Desktop]_Homepage_v.2" transform="translate(-875.000000, -645.000000)">
            <g id="Group-7" transform="translate(0.000000, 610.000000)">
                <g id="Vacuum" transform="translate(875.000000, 35.000000)">
                    <rect id="Rectangle" x="0" y="0" width="100" height="100"></rect>
                    <g id="Group-6" transform="translate(24.000000, 17.000000)">
                        <path d="M50.1333331,-2.27373675e-13 L1.95324674,-2.27373675e-13 C0.837105748,-2.27373675e-13 0,0.81496063 0,1.9015748 L0,67.0984252 C0,68.1850394 0.837105748,69 1.95324674,69 L50.0403214,69 C51.1564624,69 51.9935681,68.1850394 51.9935681,67.0984252 L51.9935681,1.9015748 C52.0865799,0.81496063 51.1564624,-2.27373675e-13 50.1333331,-2.27373675e-13 Z M51,67.2717391 C51,67.6358696 50.6254682,68 50.2509363,68 L1.74906367,68 C1.28089888,68 1,67.6358696 1,67.2717391 L1,1.72826087 C1,1.36413043 1.37453184,1 1.74906367,1 L50.1573034,1 C50.6254682,1 50.906367,1.36413043 50.906367,1.72826087 L51,67.2717391 L51,67.2717391 Z" id="Shape" stroke="#000000" stroke-width="0.3" fill="#000000" fill-rule="nonzero"></path>
                        <path d="M31.3915074,4 L21.6,4 C21.2,4 21,4.3 21,4.6 C21,4.9 21.3,5.2 21.6,5.2 L31.3915074,5.2 C31.7915074,5.2 31.9915074,4.9 31.9915074,4.6 C31.9915074,4.3 31.7915074,4 31.3915074,4 Z" id="Path-Copy" fill="#000000" fill-rule="nonzero"></path>
                        <g id="Group-5" transform="translate(8.000000, 71.000000)" fill="#000000" fill-rule="nonzero">
                            <path d="M9.39525616,-8.54871729e-14 L0.6,-8.54871729e-14 C0.2,-8.54871729e-14 -3.73923115e-13,0.3 -3.73923115e-13,0.6 C-3.73923115e-13,0.9 0.3,1.2 0.6,1.2 L9.39525616,1.2 C9.79525616,1.2 9.99525616,0.9 9.99525616,0.6 C9.99525616,0.3 9.79525616,-8.54871729e-14 9.39525616,-8.54871729e-14 Z" id="Path-Copy-3"></path>
                            <path d="M37.3952562,-8.54871729e-14 L28.6,-8.54871729e-14 C28.2,-8.54871729e-14 28,0.3 28,0.6 C28,0.9 28.3,1.2 28.6,1.2 L37.3952562,1.2 C37.7952562,1.2 37.9952562,0.9 37.9952562,0.6 C37.9952562,0.3 37.7952562,-8.54871729e-14 37.3952562,-8.54871729e-14 Z" id="Path-Copy-4"></path>
                        </g>
                        <path d="M29.1911559,41.2038715 L23.8003515,41.2038715 C23.4003515,41.2038715 23.2003515,41.5038715 23.2003515,41.8038715 C23.2003515,42.1038715 23.5003515,42.4038715 23.8003515,42.4038715 L29.1911559,42.4038715 C29.5911559,42.4038715 29.7911559,42.1038715 29.7911559,41.8038715 C29.7911559,41.5038715 29.5911559,41.2038715 29.1911559,41.2038715 Z" id="Path-Copy-2" fill="#000000" fill-rule="nonzero" transform="translate(26.495754, 41.803872) rotate(90.000000) translate(-26.495754, -41.803872) "></path>
                        <path d="M26.5,55 C30.5384615,55 34,51.7307692 34,47.5 C34,43.4615385 30.7307692,40 26.5,40 C22.4615385,40 19,43.2692308 19,47.5 C19,51.5384615 22.4615385,55 26.5,55 Z M26.5,41 C30.2142857,41 33,44.0178571 33,47.5 C33,51.2142857 29.9821429,54 26.5,54 C23.0178571,54 20,50.9821429 20,47.5 C20,44.0178571 22.7857143,41 26.5,41 Z" id="Shape" stroke="#000000" stroke-width="0.2" fill="#000000" fill-rule="nonzero"></path>
                        <circle id="Oval" stroke="#000000" stroke-width="0.7" cx="14" cy="60" r="3.65"></circle>
                        <circle id="Oval-Copy" stroke="#000000" stroke-width="0.7" cx="39" cy="60" r="3.65"></circle>
                    </g>
                </g>
            </g>
        </g>
    </g>
</svg>