<svg xmlns="http://www.w3.org/2000/svg" width="61.42" height="45.297" viewBox="0 0 61.42 45.297">
  <path id="credit-card" d="M61.42,75.284v4.607A1.024,1.024,0,0,1,60.4,80.914H1.024A1.024,1.024,0,0,1,0,79.891V75.284A1.024,1.024,0,0,1,1.024,74.26H60.4A1.024,1.024,0,0,1,61.42,75.284Zm0-4.095V68.118A5.118,5.118,0,0,0,56.3,63H5.118A5.118,5.118,0,0,0,0,68.118v3.071a1.024,1.024,0,0,0,1.024,1.024H60.4A1.024,1.024,0,0,0,61.42,71.189Zm-12.1,20.27a1.03,1.03,0,0,0-.779,1.385,5.374,5.374,0,0,1,0,3.779A1.024,1.024,0,0,0,49.284,98a3.327,3.327,0,1,0,.032-6.543Zm-48.292-8.5H60.4a1.024,1.024,0,0,1,1.024,1.024v19.194A5.118,5.118,0,0,1,56.3,108.3H5.118A5.118,5.118,0,0,1,0,103.179V83.985A1.024,1.024,0,0,1,1.024,82.962ZM18.938,97.933a1.024,1.024,0,0,0-1.024-1.024H9.341a1.024,1.024,0,1,0,0,2.047h8.573A1.024,1.024,0,0,0,18.938,97.933Zm0-6.4a1.024,1.024,0,0,0-1.024-1.024H9.341a1.024,1.024,0,1,0,0,2.047h8.573A1.024,1.024,0,0,0,18.938,91.535Zm36.34,3.2A5.379,5.379,0,0,0,46.7,90.418a5.373,5.373,0,1,0,0,8.631A5.379,5.379,0,0,0,55.278,94.734Z" transform="translate(0 -63)"/>
</svg>
