<svg xmlns="http://www.w3.org/2000/svg" width="35.486" height="35.485" viewBox="0 0 35.486 35.485">
  <g id="edit_1_" data-name="edit (1)" transform="translate(0 -0.501)">
    <path id="Path_258" data-name="Path 258" d="M28.093,97.645a1.478,1.478,0,0,0-1.479,1.479v11.829a1.48,1.48,0,0,1-1.479,1.479H4.436a1.48,1.48,0,0,1-1.479-1.479v-20.7a1.48,1.48,0,0,1,1.479-1.479H16.265a1.479,1.479,0,0,0,0-2.957H4.436A4.441,4.441,0,0,0,0,90.252v20.7a4.441,4.441,0,0,0,4.436,4.436h20.7a4.441,4.441,0,0,0,4.436-4.436V99.123a1.477,1.477,0,0,0-1.479-1.479Zm0,0" transform="translate(0 -79.402)"/>
    <path id="Path_259" data-name="Path 259" d="M183.071,79.961a.748.748,0,0,0-.2.377l-1.045,5.229a.739.739,0,0,0,.726.884.7.7,0,0,0,.145-.015l5.227-1.045a.736.736,0,0,0,.378-.2l11.7-11.7-5.227-5.227Zm0,0" transform="translate(-169.207 -63.065)"/>
    <path id="Path_260" data-name="Path 260" d="M398.719,1.582a3.7,3.7,0,0,0-5.227,0l-2.046,2.046,5.227,5.227,2.046-2.047a3.7,3.7,0,0,0,0-5.227Zm0,0" transform="translate(-364.315 0)"/>
  </g>
</svg>
