<svg xmlns="http://www.w3.org/2000/svg" width="78" height="78" viewBox="0 0 78 78">
  <g id="Group_320" data-name="Group 320" transform="translate(-2507 -5316)">
    <g id="money" transform="translate(2510.234 5322.468)">
      <path id="Path_495" data-name="Path 495" d="M29,42.383a2.385,2.385,0,0,0,2.383,2.383V40A2.385,2.385,0,0,0,29,42.383Z" transform="translate(1.98 3.591)"/>
      <path id="Path_496" data-name="Path 496" d="M3,33v28.6H72.1V33ZM20.871,54.447H18.489V52.064h2.382Zm0-11.915H18.489V40.149h2.382Zm-13.1-4.766V56.829h13.1v2.383H6.575a1.191,1.191,0,0,1-1.191-1.191V36.575a1.19,1.19,0,0,1,1.19-1.191h14.3v2.383Zm5.957,4.766V40.149h2.382v2.383Zm2.382,9.532v2.383H13.724V52.064ZM37.552,60.4a13.105,13.105,0,1,1,13.1-13.1A13.12,13.12,0,0,1,37.552,60.4ZM69.72,58.021a1.191,1.191,0,0,1-1.191,1.191h-14.3V56.829h13.1V37.766H54.231V35.383h14.3a1.19,1.19,0,0,1,1.19,1.191ZM56.614,52.064v2.383H54.232V52.064Zm-2.382-9.532V40.149h2.382v2.383Zm7.148,9.532v2.383H59V52.064ZM59,42.532V40.149H61.38v2.383Z" transform="translate(-2.998 2.25)"/>
      <path id="Path_497" data-name="Path 497" d="M33.722,36A10.723,10.723,0,1,0,44.444,46.723,10.734,10.734,0,0,0,33.722,36Zm1.193,9.532a4.766,4.766,0,0,1,0,9.532h0v1.191H32.531V55.063A4.77,4.77,0,0,1,27.765,50.3h2.383a2.385,2.385,0,0,0,2.383,2.383V47.915a4.765,4.765,0,1,1,0-9.531V37.193h2.382v1.191h0a4.77,4.77,0,0,1,4.763,4.766H37.3a2.384,2.384,0,0,0-2.381-2.383h0v4.766Z" transform="translate(0.832 2.825)"/>
      <path id="Path_498" data-name="Path 498" d="M33,50.765h0A2.383,2.383,0,0,0,33,46h0Z" transform="translate(2.746 4.739)"/>
      <path id="Path_499" data-name="Path 499" d="M27.234,31.349h2.808l-2.177-2.177A2.389,2.389,0,0,0,27.234,31.349Z" transform="translate(1.632 1.518)"/>
      <path id="Path_500" data-name="Path 500" d="M25.908,28.2A13.1,13.1,0,0,1,48.222,36.28h9.1L69.234,24.366,48.28,3.414,15.414,36.28h6.713A13,13,0,0,1,25.908,28.2Zm16.8-5-1.684-1.686,1.686-1.685,1.684,1.686Zm3.372-3.371-1.686-1.686,1.685-1.685,1.686,1.686Zm3.369,10.111,1.685-1.686,1.686,1.685-1.685,1.686ZM47.761,8.034a1.193,1.193,0,0,1,1.686,0L64.613,23.2a1.2,1.2,0,0,1,0,1.686L54.5,34.995l-1.686-1.686,9.267-9.267L48.6,10.563,39.337,19.83l-1.686-1.686ZM52.818,26.57,54.5,24.885l1.686,1.686L54.5,28.256Z" transform="translate(-0.621 -3.414)"/>
      <path id="Path_501" data-name="Path 501" d="M33.712,32.037a4.878,4.878,0,0,1,6.738,0,4.776,4.776,0,0,1,.427.493h3.486a10.718,10.718,0,0,0-21.3,0h2.55a4.727,4.727,0,0,1,1.362-3.863l-.844-.844,1.686-1.686.842.842a4.772,4.772,0,0,1,6.739,0l-1.681,1.687a2.389,2.389,0,0,0-3.371,0Z" transform="translate(0.843 0.337)"/>
    </g>
    <rect id="Rectangle_43" data-name="Rectangle 43" width="78" height="78" transform="translate(2507 5316)" fill="none"/>
  </g>
</svg>
