<svg xmlns="http://www.w3.org/2000/svg" width="24.547" height="22.331" viewBox="0 0 24.547 22.331">
  <path id="Path_262" data-name="Path 262" d="M24.092,29.929V15.083L14.273,8.417,4.455,15.083v4.366a1.425,1.425,0,0,1,1.327.9,17.812,17.812,0,0,1,1.537,5.084,3.078,3.078,0,0,1-2.455,3.239v-.829A2.3,2.3,0,0,0,6.5,25.429a19.738,19.738,0,0,0-1.477-4.778.613.613,0,0,0-1.137,0,19.753,19.753,0,0,0-1.477,4.778,2.3,2.3,0,0,0,1.636,2.41v2.091H2v.818H26.547v-.818Zm-5.728-5.318.818-1.227L20,24.611v1.227h1.636V24.611l.818-1.227.818,1.227v5.318H21.637V27.475H20v2.455H18.365V27.475H16.728v2.455H15.092V24.611l.818-1.227.818,1.227v1.227h1.636Zm-3.682-8.182h2.046v.818A1.227,1.227,0,0,1,15.5,18.474h-.818Zm.818-2.864a1.227,1.227,0,0,1,1.227,1.227v.818H14.683V13.565Zm-3.682,1.227a1.227,1.227,0,0,1,1.227-1.227h.818V15.61H11.819Zm0,1.636h2.046v2.046h-.818a1.227,1.227,0,0,1-1.227-1.227Zm.818,5.728v7.773h-4.5V22.156Z" transform="translate(-2 -8.417)" fill="#ae0028"/>
</svg>
